

<!-- Uploaded to: SVG Repo, www.svgrepo.com, Transformed by: SVG Repo Mixer Tools -->
<svg fill="none" width="25px" height="25px" viewBox="0 0 24 24" id="dashboard-alt-3" data-name="Flat Line" xmlns="http://www.w3.org/2000/svg" class="icon flat-line">

<g id="SVGRepo_bgCarrier" stroke-width="0"/>

<g id="SVGRepo_tracerCarrier" stroke-linecap="round" stroke-linejoin="round"/>

<g id="SVGRepo_iconCarrier">

<rect id="secondary" x="3" y="3" width="18" height="14" rx="1" style="fill: #ffffff; stroke-width:2.4;" stroke="#66768D"/>

<path id="primary" d="M10,14a2,2,0,0,1,4,0" />

<path id="primary-2" data-name="primary" d="M17,7l-3.84,5.37M21,16V4a1,1,0,0,0-1-1H4A1,1,0,0,0,3,4V16a1,1,0,0,0,1,1H20A1,1,0,0,0,21,16Zm-7,5H10l1-4h2ZM8,21h8"  stroke="#66768D"/>

</g>

</svg>