
<svg fill="#000000" width="25px" height="25px" viewBox="0 0 24 24" id="invoice-dollar-done-left" data-name="Flat Line" xmlns="http://www.w3.org/2000/svg" class="icon flat-line">

<g id="SVGRepo_bgCarrier" stroke-width="0"/>

<g id="SVGRepo_tracerCarrier" stroke-linecap="round" stroke-linejoin="round"/>

<g id="SVGRepo_iconCarrier">

<path id="secondary" d="M19,3H8.87A8,8,0,0,1,6,17.93V20a1,1,0,0,0,1,1H19a1,1,0,0,0,1-1V4A1,1,0,0,0,19,3Z" stroke="#66768D"/>

<polyline id="primary" points="16 10.5 14.09 13 13 11.75" stroke="#66768D" style="fill: none; stroke-linecap: round; stroke-linejoin: round; stroke-width:2.4;"/>

<path id="primary-2" data-name="primary" d="M8,7H5.5A1.5,1.5,0,0,0,4,8.5H4A1.5,1.5,0,0,0,5.5,10h1A1.5,1.5,0,0,1,8,11.5H8A1.5,1.5,0,0,1,6.5,13H4" stroke="#66768D" />

<path id="primary-3" data-name="primary" d="M13,17h3M6,7V6m0,8V13" stroke="#66768D" />

<path id="primary-4" data-name="primary" d="M6,18v2a1,1,0,0,0,1,1H19a1,1,0,0,0,1-1V4a1,1,0,0,0-1-1H9" stroke="#66768D" style="fill: none;  stroke-linecap: round; stroke-linejoin: round; stroke-width:2.4;"/>

</g>

</svg>